name C:\Users\antoi\Documents\MyRepositories\upper-imu-dc\Results\main_tracking\Case_96\kinematics.mot
datacolumns 43
datarows 13
range 6.26000000 6.50000000
endheader 
time	clav_prot	clav_elev	scapula_abduction	scapula_elevation	scapula_upward_rot	scapula_winging	plane_elv	shoulder_elv	axial_rot	TrapeziusScapula_M/activation	TrapeziusScapula_S/activation	TrapeziusScapula_I/activation	TrapeziusClavicle_S/activation	SerratusAnterior_I/activation	SerratusAnterior_M/activation	SerratusAnterior_S/activation	Rhomboideus_S/activation	Rhomboideus_I/activation	LevatorScapulae/activation	Coracobrachialis/activation	DeltoideusClavicle_A/activation	DeltoideusScapula_P/activation	DeltoideusScapula_M/activation	LatissimusDorsi_S/activation	LatissimusDorsi_M/activation	LatissimusDorsi_I/activation	PectoralisMajorClavicle_S/activation	PectoralisMajorThorax_I/activation	PectoralisMajorThorax_M/activation	TeresMajor/activation	Infraspinatus_I/activation	Infraspinatus_S/activation	PectoralisMinor/activation	TeresMinor/activation	Subscapularis_S/activation	Subscapularis_M/activation	Subscapularis_I/activation	Supraspinatus_P/activation	Supraspinatus_A/activation	TRIlong/activation	BIC_long/activation	BIC_brevis/activation	
          6.26000000	        -45.69531735	          4.56334019	        -15.85851878	         -6.09842289	         63.56891776	        -12.94457184	         39.31092329	         93.90944649	         -5.37026161	          0.10359327	          0.17280587	          0.06596594	          0.06420278	          0.15600736	          0.25128367	          0.01971031	          0.02242960	          0.01628895	          0.01711604	          0.03134821	          0.19343817	          0.02834333	          0.20925990	          0.01744994	          0.01000001	          0.01000001	          0.04678562	          0.01000104	          0.02846672	          0.02225232	          0.06586571	          0.14306094	          0.01901265	          0.02752517	          0.04367511	          0.03439751	          0.02900438	          0.06611484	          0.04757232	          0.01000000	          0.06170189	          0.04625332	
          6.28000000	        -45.69059750	          4.56292705	        -15.64702965	         -6.09670045	         63.83575165	        -12.93913846	         39.77390798	         94.09718662	         -5.53347543	          0.10339579	          0.17124745	          0.06646216	          0.06443461	          0.15619867	          0.25602931	          0.01975153	          0.02222629	          0.01605987	          0.01696229	          0.03153938	          0.19222395	          0.02886489	          0.20703540	          0.01720982	          0.01000001	          0.01000001	          0.04738385	          0.01000000	          0.02887457	          0.02252280	          0.06735766	          0.14306478	          0.01888371	          0.02790145	          0.04345609	          0.03427847	          0.02884428	          0.06596295	          0.04765654	          0.01000360	          0.06157014	          0.04620124	
          6.30000000	        -45.68326427	          4.56491995	        -15.41920553	         -6.09261710	         64.11949743	        -12.93234101	         40.23441627	         94.26012205	         -5.67437701	          0.10321923	          0.16972075	          0.06746415	          0.06466241	          0.15620764	          0.26111337	          0.01976760	          0.02203061	          0.01583663	          0.01679215	          0.03162828	          0.19040786	          0.02961753	          0.20489729	          0.01700506	          0.01000001	          0.01000001	          0.04788982	          0.01000001	          0.02921541	          0.02283506	          0.06876366	          0.14294532	          0.01874855	          0.02831714	          0.04318571	          0.03416493	          0.02873117	          0.06567120	          0.04763653	          0.01015876	          0.06132860	          0.04595381	
          6.32000000	        -45.67457000	          4.56985738	        -15.17704186	         -6.08580853	         64.42023787	        -12.92507699	         40.69201546	         94.39903214	         -5.79220580	          0.10318817	          0.16837546	          0.06841990	          0.06489352	          0.15620152	          0.26640038	          0.01970476	          0.02179786	          0.01558622	          0.01656684	          0.03156222	          0.18813712	          0.03064213	          0.20284002	          0.01681447	          0.01000001	          0.01000001	          0.04829239	          0.01000000	          0.02943946	          0.02316490	          0.07017248	          0.14270415	          0.01858744	          0.02876225	          0.04286028	          0.03404332	          0.02864859	          0.06528294	          0.04749917	          0.01043577	          0.06100675	          0.04549322	
          6.34000000	        -45.66607684	          4.57826925	        -14.92362837	         -6.07594168	         64.73725897	        -12.91843771	         41.14560043	         94.51545175	         -5.88930440	          0.10330243	          0.16724286	          0.06923899	          0.06511837	          0.15619809	          0.27177787	          0.01961095	          0.02155789	          0.01532153	          0.01631897	          0.03138027	          0.18553635	          0.03197210	          0.20082814	          0.01661739	          0.01000001	          0.01000001	          0.04853433	          0.01000109	          0.02957617	          0.02354203	          0.07144239	          0.14226867	          0.01840091	          0.02926915	          0.04247649	          0.03391840	          0.02859779	          0.06473231	          0.04721172	          0.01075513	          0.06055321	          0.04478172	
          6.36000000	        -45.65904162	          4.59040927	        -14.66229391	         -6.06286640	         65.06883652	        -12.91322554	         41.59308168	         94.61205777	         -5.96721645	          0.10349031	          0.16620302	          0.06996941	          0.06532844	          0.15600845	          0.27720490	          0.01948501	          0.02131430	          0.01505750	          0.01605934	          0.03109519	          0.18268511	          0.03360195	          0.19874496	          0.01643165	          0.01000002	          0.01000001	          0.04863144	          0.01000125	          0.02963319	          0.02397983	          0.07258127	          0.14172118	          0.01820384	          0.02984722	          0.04204614	          0.03378893	          0.02857480	          0.06406258	          0.04680616	          0.01115957	          0.06000620	          0.04387171	
          6.38000000	        -45.65427969	          4.60618825	        -14.39620060	         -6.04665847	         65.41246615	        -12.90985111	         42.03120567	         94.69241135	         -6.02820376	          0.10383767	          0.16524746	          0.07041867	          0.06553040	          0.15572016	          0.28262001	          0.01929018	          0.02104263	          0.01478354	          0.01576493	          0.03070142	          0.17959173	          0.03546973	          0.19652763	          0.01626893	          0.01000002	          0.01000001	          0.04863764	          0.01000000	          0.02961135	          0.02445185	          0.07366534	          0.14125863	          0.01799611	          0.03045952	          0.04159610	          0.03365591	          0.02857564	          0.06333733	          0.04632413	          0.01163093	          0.05942424	          0.04283709	
          6.40000000	        -45.65290823	          4.62474026	        -14.12826378	         -6.02794943	         65.76632253	        -12.90859580	         42.45596709	         94.75924155	         -6.07687789	          0.10427925	          0.16430370	          0.07073419	          0.06569700	          0.15521733	          0.28816693	          0.01907050	          0.02076871	          0.01451245	          0.01546640	          0.03029429	          0.17653030	          0.03748909	          0.19410383	          0.01610740	          0.01000002	          0.01000001	          0.04862182	          0.01000082	          0.02958044	          0.02494880	          0.07472655	          0.14067093	          0.01778560	          0.03113103	          0.04114642	          0.03352632	          0.02858518	          0.06257521	          0.04583111	          0.01215466	          0.05883360	          0.04177812	
          6.42000000	        -45.65634467	          4.64476405	        -13.86080485	         -6.00767647	         66.12983457	        -12.90973405	         42.86293497	         94.81382304	         -6.11962177	          0.10484729	          0.16340019	          0.07127009	          0.06580880	          0.15442543	          0.29401884	          0.01884051	          0.02049339	          0.01423289	          0.01516176	          0.02991713	          0.17365260	          0.03963112	          0.19164539	          0.01592819	          0.01000002	          0.01000002	          0.04860935	          0.01000096	          0.02958436	          0.02544953	          0.07566773	          0.13994436	          0.01756527	          0.03184511	          0.04070794	          0.03339539	          0.02858551	          0.06180377	          0.04536201	          0.01269692	          0.05826094	          0.04074463	
          6.44000000	        -45.66591889	          4.66472334	        -13.59571715	         -5.98692754	         66.50275400	        -12.91338927	         43.24801981	         94.85705204	         -6.16133092	          0.10537471	          0.16248110	          0.07203244	          0.06590216	          0.15339217	          0.30017137	          0.01861526	          0.02022295	          0.01394732	          0.01485903	          0.02962616	          0.17105433	          0.04171359	          0.18910843	          0.01571817	          0.01000002	          0.01000002	          0.04869742	          0.01000000	          0.02966052	          0.02592901	          0.07653518	          0.13898594	          0.01733253	          0.03259722	          0.04029920	          0.03326730	          0.02856113	          0.06107297	          0.04498543	          0.01323304	          0.05773514	          0.03983489	
          6.46000000	        -45.68215515	          4.68314273	        -13.33446197	         -5.96671955	         66.88379713	        -12.91924928	         43.60786653	         94.89104348	         -6.20634340	          0.10581000	          0.16151833	          0.07291387	          0.06598351	          0.15220963	          0.30645880	          0.01838669	          0.01996462	          0.01367802	          0.01457170	          0.02939029	          0.16864095	          0.04366576	          0.18657414	          0.01550725	          0.01000002	          0.01000002	          0.04889558	          0.01000099	          0.02978075	          0.02640014	          0.07739516	          0.13778372	          0.01710498	          0.03337880	          0.03992285	          0.03315431	          0.02853853	          0.06039165	          0.04468955	          0.01381036	          0.05724679	          0.03903851	
          6.48000000	        -45.70539114	          4.69916882	        -13.07872450	         -5.94765313	         67.27122951	        -12.92717984	         43.94034248	         94.91805522	         -6.25847585	          0.10628511	          0.16072757	          0.07384905	          0.06608552	          0.15104287	          0.31293040	          0.01809764	          0.01967552	          0.01334797	          0.01422292	          0.02917156	          0.16662783	          0.04545974	          0.18413909	          0.01523830	          0.01000002	          0.01000002	          0.04919102	          0.01000000	          0.02992095	          0.02681402	          0.07826512	          0.13646467	          0.01682378	          0.03414272	          0.03957645	          0.03303929	          0.02849230	          0.05977888	          0.04445949	          0.01429649	          0.05680983	          0.03834120	
          6.50000000	        -45.73639663	          4.71254257	        -12.83072273	         -5.92995533	         67.66371083	        -12.93757435	         44.24478943	         94.93961370	         -6.32076026	          0.10670091	          0.16010942	          0.07475591	          0.06622468	          0.14979075	          0.31937508	          0.01785215	          0.01944385	          0.01308318	          0.01393903	          0.02904473	          0.16492900	          0.04712389	          0.18163808	          0.01499969	          0.01000002	          0.01000002	          0.04957376	          0.01000002	          0.03012288	          0.02724905	          0.07908902	          0.13471886	          0.01657436	          0.03495218	          0.03927128	          0.03295781	          0.02847199	          0.05920191	          0.04430479	          0.01488429	          0.05640195	          0.03776133	
